<svg xmlns="http://www.w3.org/2000/svg" width="105" height="46" viewBox="0 0 105 46" fill="none">
  <path fill-rule="evenodd" clip-rule="evenodd" d="M5.61747 19.2598H33.5442C33.8652 17.6548 33.8652 16.2103 33.7047 14.6053C33.3837 14.4448 33.2232 14.4448 32.9022 14.4448H3.85199C4.17299 15.7288 4.49398 16.8523 5.13598 17.9758C5.29647 18.4573 5.45697 18.9388 5.61747 19.2598Z" fill="#54428E"/>
  <path fill-rule="evenodd" clip-rule="evenodd" d="M7.70386 29.8525C7.70386 30.655 7.86436 30.4945 8.66685 31.1365L12.5188 34.9884C13.1608 35.7909 12.8398 35.4699 13.3213 35.6304C13.6423 35.1489 16.8523 29.05 17.6547 28.729C19.2597 28.2475 23.2722 29.5315 27.6056 27.445C28.7291 26.9635 31.2971 25.0376 31.6181 23.9141H7.70386V29.8525Z" fill="#54428E"/>
  <path fill-rule="evenodd" clip-rule="evenodd" d="M1.76548 9.79046H31.2972C30.9762 9.14847 30.4947 8.66698 30.0132 8.34598C26.4822 4.81502 22.3093 5.13602 17.9758 5.13602H0C0.160498 6.099 1.44448 8.50648 1.76548 9.79046Z" fill="#54428E"/>
  <path d="M35.9517 18.9395H44.9396V21.0259H35.9517V18.9395Z" fill="#54428E"/>
  <path d="M49.2729 11.8776H51.6804V14.1246C52.1619 13.3221 52.8039 12.6801 53.6064 12.1986C54.4089 11.7171 55.2114 11.5566 56.0139 11.5566H58.4213C60.1868 11.5566 61.6313 12.1986 62.7548 13.3221C63.8783 14.4456 64.3598 16.0506 64.3598 17.8161V21.989C64.3598 24.0755 63.7178 25.6805 62.5943 26.9645C61.4708 28.2485 60.0263 28.8904 58.1004 28.8904H55.6929C55.0509 28.8904 54.2484 28.7299 53.4459 28.2485C52.6434 27.9275 52.1619 27.2855 51.6804 26.6435V35.3104H49.2729V11.8776ZM58.1004 26.804C59.2238 26.804 60.1868 26.3225 60.8288 25.52C61.4708 24.7175 61.9523 23.4335 61.9523 21.989V17.8161C61.9523 16.5321 61.6313 15.5691 60.9893 14.7666C60.3473 13.9641 59.3843 13.6431 58.2608 13.6431H55.8534C54.8904 13.6431 54.0879 13.9641 53.2854 14.7666C52.4829 15.5691 52.0014 16.3716 51.6804 17.6556V22.7915C51.8409 23.915 52.3224 25.0385 53.1249 25.6805C53.9274 26.483 54.7299 26.804 55.8534 26.804H58.1004Z" fill="#54428E"/>
  <path d="M69.8168 27.6058C68.8538 26.8033 68.3723 25.6799 68.3723 24.2354V23.1119C68.3723 21.6674 68.8538 20.5439 69.8168 19.7414C70.7798 18.9389 72.2243 18.4574 73.8293 18.4574H75.9157C76.7182 18.4574 77.3602 18.6179 78.1627 18.7784C78.9652 18.9389 79.6072 19.2599 80.2492 19.7414V17.0129C80.2492 16.05 79.9282 15.2475 79.4467 14.766C78.9652 14.2845 78.0022 13.6425 77.0392 13.6425H74.3108C73.3478 13.6425 72.5453 13.803 72.0638 14.2845C71.4218 14.766 71.2613 15.408 71.2613 16.05H68.8538C68.8538 14.6055 69.3353 13.6425 70.4588 12.6795C71.4218 11.877 72.8663 11.3955 74.4713 11.3955H77.0392C78.6442 11.3955 80.0887 11.877 81.0517 12.84C82.0147 13.803 82.6567 15.087 82.6567 16.6919V28.4083H80.4097V26.0008C79.9282 26.8033 79.2862 27.4453 78.3232 27.9268C77.5207 28.4083 76.5577 28.5688 75.7552 28.5688H73.6688C72.0638 28.8898 70.7798 28.5688 69.8168 27.6058ZM75.7552 26.8033C76.8787 26.8033 77.6812 26.4823 78.6442 25.8403C79.6072 25.1984 80.0887 24.3959 80.2492 23.2724V21.9884C79.7677 21.5069 79.1257 21.1859 78.3232 21.0254C77.5207 20.7044 76.7182 20.7044 75.9157 20.7044H73.8293C72.8663 20.7044 72.2243 20.8649 71.5823 21.3464C70.9403 21.8279 70.7798 22.4699 70.7798 23.2724V24.3959C70.7798 25.1984 71.1008 25.8403 71.5823 26.3218C72.0638 26.8033 72.8663 26.9638 73.6688 26.9638L75.7552 26.8033Z" fill="#54428E"/>
  <path d="M89.2371 34.3467C88.2741 33.5442 87.7926 32.4207 87.6321 31.1367H90.0396C90.2001 31.7787 90.3606 32.4207 91.0026 32.7417C91.484 33.2232 92.126 33.3837 92.9285 33.3837H95.4965C96.62 33.3837 97.583 33.0627 98.225 32.2602C98.867 31.4577 99.188 30.3342 99.188 29.0503V26.0008C98.7065 26.8033 97.904 27.4453 97.1015 27.9268C96.299 28.4083 95.4965 28.7293 94.694 28.7293H92.6075C91.0026 28.7293 89.7186 28.2478 88.7556 27.1243C87.7926 26.0008 87.3111 24.7168 87.3111 22.9513V11.877H89.7186V23.1118C89.7186 24.2353 90.0396 25.0378 90.5211 25.6798C91.0026 26.3218 91.805 26.6428 92.6075 26.6428H94.694C95.657 26.6428 96.62 26.1613 97.583 25.3588C98.3855 24.5563 99.0275 23.4328 99.188 22.1488V11.877H101.595V29.0503C101.595 31.1367 101.114 32.7417 99.9905 33.8652C98.867 34.9887 97.4225 35.6307 95.4965 35.6307H92.9285C91.4841 35.4702 90.2001 35.1492 89.2371 34.3467Z" fill="#54428E"/>
</svg>