<svg xmlns="http://www.w3.org/2000/svg" width="46" height="46" viewBox="0 0 46 46" fill="none">
  <g clip-path="url(#clip0_1_204)">
    <path d="M35.5467 35.6559L29.3771 31.5896C28.7507 31.1829 27.9907 31.036 27.2579 31.18C26.5251 31.3239 25.877 31.7474 25.451 32.3608C24.0489 34.1135 22.2961 36.988 15.776 30.3978C9.25592 23.8075 12.0603 22.1249 13.813 20.7228C14.4074 20.2983 14.8179 19.6635 14.9611 18.9473C15.1044 18.2311 14.9696 17.4872 14.5842 16.8668L10.5179 10.6972C9.95701 9.92601 9.25592 8.66406 7.57331 8.87438C5.8907 9.08471 1.61407 11.5385 1.61407 16.8668C1.61407 22.195 5.8206 28.7853 11.5695 34.5342C17.3184 40.2831 23.9086 44.5597 29.307 44.5597C34.7054 44.5597 37.1592 39.7923 37.3695 38.6005C37.5798 37.4086 36.3179 36.1467 35.5467 35.6559Z" fill="#1B6CE1"/>
    <path d="M21.2445 1.09229C20.8726 1.09229 20.516 1.24001 20.253 1.50297C19.9901 1.76593 19.8423 2.12258 19.8423 2.49446C19.8423 2.86634 19.9901 3.22299 20.253 3.48595C20.516 3.7489 20.8726 3.89663 21.2445 3.89663C26.8227 3.89663 32.1724 6.11256 36.1168 10.0569C40.0612 14.0013 42.2771 19.351 42.2771 24.9292C42.2771 25.3011 42.4249 25.6578 42.6878 25.9207C42.9508 26.1837 43.3074 26.3314 43.6793 26.3314C44.0512 26.3314 44.4078 26.1837 44.6708 25.9207C44.9337 25.6578 45.0815 25.3011 45.0815 24.9292C45.0815 21.7989 44.4649 18.6993 43.267 15.8072C42.0691 12.9152 40.3133 10.2874 38.0998 8.07397C35.8863 5.8605 33.2586 4.10468 30.3665 2.90677C27.4745 1.70885 24.3748 1.09229 21.2445 1.09229Z" fill="#1B6CE1"/>
    <path d="M21.2445 8.10327C20.8726 8.10327 20.516 8.251 20.253 8.51396C19.9901 8.77692 19.8423 9.13357 19.8423 9.50545C19.8423 9.87733 19.9901 10.234 20.253 10.4969C20.516 10.7599 20.8726 10.9076 21.2445 10.9076C24.9633 10.9076 28.5298 12.3849 31.1594 15.0145C33.789 17.6441 35.2663 21.2106 35.2663 24.9294C35.2663 25.3012 35.414 25.6579 35.6769 25.9208C35.9399 26.1838 36.2966 26.3315 36.6684 26.3315C37.0403 26.3315 37.397 26.1838 37.6599 25.9208C37.9229 25.6579 38.0706 25.3012 38.0706 24.9294C38.0706 20.4668 36.2979 16.187 33.1424 13.0315C29.9869 9.87602 25.7071 8.10327 21.2445 8.10327Z" fill="#1B6CE1"/>
    <path d="M27.5543 24.9293C27.5543 25.3012 27.702 25.6578 27.965 25.9208C28.2279 26.1838 28.5846 26.3315 28.9565 26.3315C29.3284 26.3315 29.685 26.1838 29.948 25.9208C30.2109 25.6578 30.3587 25.3012 30.3587 24.9293C30.3587 22.5121 29.3984 20.1939 27.6892 18.4847C25.98 16.7754 23.6617 15.8152 21.2445 15.8152C20.8726 15.8152 20.516 15.9629 20.253 16.2259C19.9901 16.4888 19.8423 16.8455 19.8423 17.2174C19.8423 17.5892 19.9901 17.9459 20.253 18.2088C20.516 18.4718 20.8726 18.6195 21.2445 18.6195C22.0731 18.6195 22.8936 18.7827 23.6592 19.0998C24.4247 19.4169 25.1203 19.8817 25.7062 20.4676C26.2921 21.0535 26.7569 21.7491 27.074 22.5147C27.3911 23.2802 27.5543 24.1007 27.5543 24.9293Z" fill="#1B6CE1"/>
  </g>
  <defs>
    <clipPath id="clip0_1_204">
      <rect width="44.8696" height="44.8696" fill="white" transform="translate(0.913025 0.391113)"/>
    </clipPath>
  </defs>
</svg>