<svg xmlns="http://www.w3.org/2000/svg" width="46" height="46" viewBox="0 0 46 46" fill="none">
  <g clip-path="url(#clip0_1_228)">
    <path d="M34.5652 19.0867H45.7826L40.1739 11.6084L34.5652 19.0867ZM34.5652 26.5649H45.7826L40.1739 34.0432L34.5652 26.5649Z" fill="#D6B1FF"/>
    <path d="M2.78261 0.391113H14V45.2607H2.78261C2.28677 45.2607 1.81123 45.0637 1.46062 44.7131C1.11001 44.3625 0.91304 43.887 0.91304 43.3911V2.26068C0.91304 1.76484 1.11001 1.28931 1.46062 0.938695C1.81123 0.588083 2.28677 0.391113 2.78261 0.391113Z" fill="#1B6CE1"/>
    <path d="M17.7391 0.391113H28.9565C29.4524 0.391113 29.9279 0.588083 30.2785 0.938695C30.6291 1.28931 30.8261 1.76484 30.8261 2.26068V43.3911C30.8261 43.887 30.6291 44.3625 30.2785 44.7131C29.9279 45.0637 29.4524 45.2607 28.9565 45.2607H17.7391V0.391113Z" fill="#1B6CE1"/>
  </g>
  <defs>
    <clipPath id="clip0_1_228">
      <rect width="44.8696" height="44.8696" fill="white" transform="translate(0.91304 0.391113)"/>
    </clipPath>
  </defs>
</svg>