<svg xmlns="http://www.w3.org/2000/svg" width="46" height="46" viewBox="0 0 46 46" fill="none">
  <path d="M23.3478 20.0216C25.2838 20.0216 26.8532 18.4522 26.8532 16.5162C26.8532 14.5802 25.2838 13.0107 23.3478 13.0107C21.4118 13.0107 19.8424 14.5802 19.8424 16.5162C19.8424 18.4522 21.4118 20.0216 23.3478 20.0216Z" fill="#1B6CE1"/>
  <path d="M29.2369 21.4238H17.4587C17.1612 21.4238 16.8759 21.542 16.6655 21.7524C16.4551 21.9627 16.3369 22.2481 16.3369 22.5456V31.5195C16.3369 31.817 16.4551 32.1023 16.6655 32.3127C16.8759 32.523 17.1612 32.6412 17.4587 32.6412H19.1413V41.3347C19.1413 41.6322 19.2595 41.9175 19.4698 42.1279C19.6802 42.3383 19.9655 42.4564 20.263 42.4564H26.4326C26.7301 42.4564 27.0154 42.3383 27.2258 42.1279C27.4362 41.9175 27.5543 41.6322 27.5543 41.3347V32.6412H29.2369C29.5344 32.6412 29.8198 32.523 30.0301 32.3127C30.2405 32.1023 30.3587 31.817 30.3587 31.5195V22.5456C30.3587 22.2481 30.2405 21.9627 30.0301 21.7524C29.8198 21.542 29.5344 21.4238 29.2369 21.4238Z" fill="#1B6CE1"/>
  <path d="M7.92389 8.80425C9.47268 8.80425 10.7282 7.5487 10.7282 5.9999C10.7282 4.45111 9.47268 3.19556 7.92389 3.19556C6.37509 3.19556 5.11954 4.45111 5.11954 5.9999C5.11954 7.5487 6.37509 8.80425 7.92389 8.80425Z" fill="#1B6CE1"/>
  <path d="M12.4109 10.9075H3.43696C3.13945 10.9075 2.85413 11.0257 2.64377 11.236C2.4334 11.4464 2.31522 11.7317 2.31522 12.0292V18.8999C2.31522 19.1974 2.4334 19.4827 2.64377 19.6931C2.85413 19.9034 3.13945 20.0216 3.43696 20.0216H5.11956V27.3129C5.11956 27.6104 5.23775 27.8957 5.44811 28.1061C5.65848 28.3165 5.9438 28.4346 6.2413 28.4346H9.60652C9.90402 28.4346 10.1893 28.3165 10.3997 28.1061C10.6101 27.8957 10.7283 27.6104 10.7283 27.3129V20.0216H12.4109C12.7084 20.0216 12.9937 19.9034 13.2041 19.6931C13.4144 19.4827 13.5326 19.1974 13.5326 18.8999V12.0292C13.5326 11.7317 13.4144 11.4464 13.2041 11.236C12.9937 11.0257 12.7084 10.9075 12.4109 10.9075Z" fill="#1B6CE1"/>
  <path d="M38.7717 8.80425C40.3205 8.80425 41.5761 7.5487 41.5761 5.9999C41.5761 4.45111 40.3205 3.19556 38.7717 3.19556C37.2229 3.19556 35.9674 4.45111 35.9674 5.9999C35.9674 7.5487 37.2229 8.80425 38.7717 8.80425Z" fill="#1B6CE1"/>
  <path d="M43.2587 10.9075H34.2848C33.9873 10.9075 33.7019 11.0257 33.4916 11.236C33.2812 11.4464 33.163 11.7317 33.163 12.0292V18.8999C33.163 19.1974 33.2812 19.4827 33.4916 19.6931C33.7019 19.9034 33.9873 20.0216 34.2848 20.0216H35.9674V27.3129C35.9674 27.6104 36.0856 27.8957 36.2959 28.1061C36.5063 28.3165 36.7916 28.4346 37.0891 28.4346H40.4543C40.7518 28.4346 41.0372 28.3165 41.2475 28.1061C41.4579 27.8957 41.5761 27.6104 41.5761 27.3129V20.0216H43.2587C43.5562 20.0216 43.8415 19.9034 44.0519 19.6931C44.2622 19.4827 44.3804 19.1974 44.3804 18.8999V12.0292C44.3804 11.7317 44.2622 11.4464 44.0519 11.236C43.8415 11.0257 43.5562 10.9075 43.2587 10.9075Z" fill="#1B6CE1"/>
</svg>