<svg xmlns="http://www.w3.org/2000/svg" width="55" height="62" viewBox="0 0 55 62" fill="none">
  <ellipse cx="27.835" cy="30.9562" rx="26.9737" ry="30.941" fill="url(#paint0_linear_1_392)" fill-opacity="0.3"/>
  <path d="M27.8442 14.0791C24.9333 14.0791 22.0877 15.0689 19.6674 16.9234C17.247 18.7778 15.3606 21.4136 14.2466 24.4975C13.1327 27.5814 12.8412 30.9747 13.4091 34.2485C13.977 37.5223 15.3787 40.5295 17.4371 42.8898C19.4954 45.2501 22.1179 46.8575 24.9729 47.5087C27.8279 48.1599 30.7872 47.8256 33.4766 46.5483C36.1659 45.2709 38.4645 43.1077 40.0818 40.3323C41.699 37.5569 42.5622 34.294 42.5622 30.956C42.5622 26.48 41.0116 22.1873 38.2514 19.0222C35.4913 15.8572 31.7477 14.0791 27.8442 14.0791V14.0791ZM35.7092 42.6116L34.5593 42.3479C30.8338 41.5568 30.6039 39.3417 30.6039 38.4452V38.3397C32.4853 38.2048 34.3499 37.8514 36.1691 37.2849C34.6513 35.5444 33.3635 34.7006 33.3635 27.3697C33.3635 20.0388 26.9244 21.4628 26.9244 21.4628C22.325 21.4628 22.325 27.1587 22.325 27.1587C22.325 34.4896 21.1292 35.4917 19.6114 37.2849C21.3994 37.8508 23.2335 38.2042 25.0846 38.3397V38.4979C25.0846 39.3417 24.8547 41.6096 21.1292 42.4007L20.0713 42.7171C17.9219 40.8567 16.3352 38.2703 15.5344 35.3219C14.7336 32.3735 14.759 29.2114 15.607 26.2804C16.4551 23.3495 18.0831 20.7971 20.2621 18.9824C22.441 17.1676 25.0613 16.1818 27.7543 16.1637C30.4473 16.1455 33.0775 17.0959 35.2749 18.8811C37.4724 20.6663 39.1264 23.1965 40.0045 26.1159C40.8826 29.0352 40.9404 32.1967 40.1699 35.1557C39.3994 38.1147 37.8393 40.7223 35.7092 42.6116Z" fill="#54428E"/>
  <defs>
    <linearGradient id="paint0_linear_1_392" x1="27.835" y1="0.0151367" x2="27.835" y2="61.8972" gradientUnits="userSpaceOnUse">
      <stop stop-color="#FE23C7"/>
      <stop offset="1" stop-color="#FFB953"/>
    </linearGradient>
  </defs>
</svg>